<?xml version="1.0" encoding="UTF-8" standalone="no"?>
<svg
   width="280"
   height="48"
   viewBox="0 0 280 48"
   fill="none"
   version="1.1"
   id="svg6"
   sodipodi:docname="Group 226.svg"
   inkscape:version="1.1.2 (1:1.1+202202050950+0a00cf5339)"
   xmlns:inkscape="http://www.inkscape.org/namespaces/inkscape"
   xmlns:sodipodi="http://sodipodi.sourceforge.net/DTD/sodipodi-0.dtd"
   xmlns="http://www.w3.org/2000/svg"
   xmlns:svg="http://www.w3.org/2000/svg">
  <defs
     id="defs10" />
  <sodipodi:namedview
     id="namedview8"
     pagecolor="#505050"
     bordercolor="#eeeeee"
     borderopacity="1"
     inkscape:pageshadow="0"
     inkscape:pageopacity="0"
     inkscape:pagecheckerboard="0"
     showgrid="false"
     inkscape:zoom="1.0366071"
     inkscape:cx="31.352282"
     inkscape:cy="-12.05857"
     inkscape:window-width="1366"
     inkscape:window-height="709"
     inkscape:window-x="0"
     inkscape:window-y="0"
     inkscape:window-maximized="1"
     inkscape:current-layer="svg6" />
  <path
     d="M26.6381 0L0 47.524C3.07215 44.8823 6.66909 42.9216 10.555 41.7718L26.5024 12.9372L37.6294 31.4409C33.1774 30.3205 30.0581 29.6689 24.1025 29.666L23.1207 29.6689L20.137 35.0614C23.8372 34.6486 27.5845 34.684 31.2905 35.1764C32.0305 35.2766 32.7706 35.3916 33.5076 35.5272C37.9301 36.341 42.2701 37.8151 46.3771 39.9674C47.0611 40.3242 47.7392 40.7045 48.4085 41.0996C48.9922 41.4475 49.517 41.7718 50.0182 42.0961L26.6381 0Z"
     fill="#FF0000"
     id="path2" />
  <path
     d="M125.719 13.3387C125.311 13.3387 124.969 13.4721 124.694 13.7556C124.435 14.014 124.302 14.3308 124.302 14.7142C124.302 15.0894 124.435 15.4061 124.694 15.6646C124.969 15.9313 125.311 16.0564 125.719 16.0564C126.128 16.0564 126.461 15.9313 126.72 15.6646C126.995 15.3895 127.136 15.056 127.136 14.6642C127.136 14.2891 126.995 13.9806 126.72 13.7306C126.461 13.4721 126.128 13.3387 125.719 13.3387ZM253.357 13.3387C252.949 13.3387 252.607 13.4721 252.332 13.7556C252.065 14.014 251.94 14.3308 251.94 14.7142C251.94 15.0894 252.065 15.4061 252.332 15.6646C252.607 15.9313 252.949 16.0564 253.357 16.0564C253.757 16.0564 254.091 15.9313 254.358 15.6646C254.633 15.3895 254.766 15.056 254.766 14.6642C254.766 14.2891 254.633 13.9806 254.358 13.7306C254.091 13.4721 253.757 13.3387 253.357 13.3387ZM173.795 13.6638V29.8197H175.887V23.8759C175.887 22.6421 176.213 21.7001 176.871 21.0499C177.521 20.3746 178.413 20.0412 179.547 20.0412C180.547 20.0412 181.314 20.3246 181.856 20.8915C182.39 21.4584 182.657 22.3003 182.657 23.4174V29.8197H184.749V23.184C184.749 21.5417 184.316 20.2996 183.44 19.4576C182.59 18.599 181.423 18.1738 179.956 18.1738C179.089 18.1738 178.297 18.3239 177.588 18.6323C176.888 18.9324 176.321 19.3659 175.887 19.9161V13.6638H173.795ZM217.386 13.6638V29.8197H219.478V13.6638H217.386ZM62.7214 14.5809L55.8105 29.8197H58.0613L59.737 26.01H67.8316L69.5072 29.8197H71.7997L64.8722 14.5809H62.7214ZM134.731 14.5809V16.4732H139.958V29.8197H142.117V16.4732H147.344V14.5809H134.731ZM63.7801 16.7983L67.0729 24.2677H60.4956L63.7801 16.7983ZM78.4271 18.1738C77.3267 18.1738 76.3263 18.4072 75.426 18.8657C74.5423 19.3326 73.8421 19.9911 73.3336 20.8498C72.825 21.6918 72.575 22.6588 72.575 23.7508C72.575 24.8346 72.825 25.8099 73.3336 26.6686C73.8421 27.5105 74.5423 28.1691 75.426 28.6443C76.3263 29.1111 77.3267 29.3445 78.4271 29.3445C79.2691 29.3445 80.0443 29.1945 80.7613 28.9027C81.4865 28.6026 82.0951 28.1524 82.5869 27.5606V28.4692C82.5869 29.778 82.2618 30.7534 81.6116 31.387C80.9697 32.0289 79.9776 32.3456 78.6272 32.3456C77.7852 32.3456 76.9599 32.2123 76.1679 31.9372C75.3843 31.6704 74.7174 31.3119 74.1839 30.8451L73.1835 32.454C73.7921 33.0042 74.5924 33.4294 75.576 33.7211C76.5681 34.0212 77.6018 34.1796 78.6938 34.1796C80.6779 34.1796 82.1701 33.6878 83.1788 32.7208C84.1792 31.7621 84.6794 30.2699 84.6794 28.2525V18.2822H82.6953V20.0662C82.2201 19.4409 81.6032 18.9741 80.8446 18.649C80.1027 18.3322 79.3024 18.1738 78.4271 18.1738ZM92.8573 18.1738C91.9237 18.1738 91.0483 18.3072 90.223 18.5656C89.3894 18.8074 88.6808 19.1742 88.0889 19.6577L88.9559 21.2166C89.4061 20.8415 89.9563 20.5497 90.6148 20.3246C91.2651 20.0995 91.932 19.9828 92.6156 19.9828C93.6326 19.9828 94.3995 20.2162 94.9247 20.6997C95.4499 21.1749 95.7083 21.8668 95.7083 22.7672V23.184H92.3988C90.7899 23.184 89.6061 23.4924 88.8725 24.1176C88.1306 24.7262 87.7555 25.5432 87.7555 26.5519C87.7555 27.5689 88.1473 28.3942 88.9142 29.0194C89.6978 29.6363 90.7316 29.9531 92.0237 29.9531C92.9157 29.9531 93.6743 29.8114 94.3162 29.5363C94.9664 29.2445 95.4666 28.836 95.8167 28.2942V29.8197H97.8008V22.8505C97.8008 21.2999 97.3673 20.1329 96.5087 19.3493C95.6667 18.5656 94.4496 18.1738 92.8573 18.1738ZM107.654 18.1738C106.779 18.1738 106.004 18.3322 105.32 18.649C104.645 18.9574 104.095 19.4076 103.67 19.9995V18.2822H101.669V29.8197H103.753V23.8759C103.753 22.6421 104.07 21.7001 104.695 21.0499C105.32 20.3746 106.162 20.0412 107.221 20.0412C108.18 20.0412 108.913 20.3246 109.413 20.8915C109.939 21.4584 110.205 22.3003 110.205 23.4174V29.8197H112.289V23.8759C112.289 22.6421 112.606 21.7001 113.231 21.0499C113.857 20.3746 114.699 20.0412 115.757 20.0412C116.716 20.0412 117.45 20.3246 117.958 20.8915C118.475 21.4584 118.742 22.3003 118.742 23.4174V29.8197H120.826V23.184C120.826 21.525 120.401 20.2746 119.542 19.4326C118.7 18.5906 117.558 18.1738 116.099 18.1738C115.132 18.1738 114.248 18.3572 113.465 18.7407C112.698 19.1158 112.098 19.641 111.664 20.3079C111.281 19.6077 110.747 19.0825 110.047 18.7157C109.355 18.3572 108.555 18.1738 107.654 18.1738ZM152.962 18.1738C151.862 18.1738 150.862 18.4239 149.978 18.9324C149.111 19.4243 148.419 20.1245 147.911 21.0249C147.419 21.9252 147.169 22.9339 147.169 24.0509C147.169 25.1847 147.427 26.2017 147.936 27.1021C148.452 28.0024 149.186 28.7026 150.128 29.2112C151.07 29.703 152.154 29.9531 153.379 29.9531C154.33 29.9531 155.197 29.7947 155.964 29.4696C156.755 29.1528 157.406 28.686 157.923 28.0774L156.772 26.7269C155.93 27.6606 154.821 28.1274 153.438 28.1274C152.312 28.1274 151.354 27.819 150.587 27.2104C149.836 26.5852 149.386 25.7683 149.261 24.7512H158.623C158.656 24.4845 158.665 24.276 158.665 24.1176C158.665 22.9589 158.423 21.9252 157.923 21.0249C157.447 20.1245 156.772 19.4243 155.897 18.9324C155.047 18.4239 154.063 18.1738 152.962 18.1738ZM166.576 18.1738C165.4 18.1738 164.35 18.4239 163.425 18.9324C162.508 19.4243 161.791 20.1245 161.265 21.0249C160.74 21.9085 160.482 22.9172 160.482 24.0509C160.482 25.1847 160.74 26.2017 161.265 27.1021C161.791 27.9857 162.508 28.686 163.425 29.1861C164.35 29.6947 165.4 29.9531 166.576 29.9531C167.626 29.9531 168.551 29.7447 169.368 29.3195C170.194 28.886 170.836 28.2691 171.286 27.4689L169.694 26.4685C169.327 27.0187 168.877 27.4355 168.343 27.7106C167.801 27.9857 167.209 28.1274 166.559 28.1274C165.8 28.1274 165.117 27.9524 164.508 27.6189C163.916 27.2854 163.441 26.8186 163.091 26.2101C162.758 25.5849 162.591 24.8679 162.591 24.0509C162.591 23.2507 162.758 22.5504 163.091 21.9418C163.441 21.3166 163.916 20.8331 164.508 20.4997C165.117 20.1662 165.8 19.9995 166.559 19.9995C167.209 19.9995 167.801 20.1412 168.343 20.4163C168.877 20.6914 169.327 21.1082 169.694 21.6584L171.286 20.6331C170.836 19.8328 170.194 19.2242 169.368 18.8074C168.551 18.3822 167.626 18.1738 166.576 18.1738ZM194.803 18.1738C193.886 18.1738 193.069 18.3322 192.343 18.649C191.626 18.9741 191.068 19.4243 190.643 20.0245V18.2822H188.642V29.8197H190.734V23.8759C190.734 22.6421 191.06 21.7001 191.71 21.0499C192.36 20.3746 193.252 20.0412 194.386 20.0412C195.386 20.0412 196.161 20.3246 196.695 20.8915C197.237 21.4584 197.504 22.3003 197.504 23.4174V29.8197H199.596V23.184C199.596 21.5417 199.154 20.2996 198.287 19.4576C197.429 18.599 196.27 18.1738 194.803 18.1738ZM208.508 18.1738C207.366 18.1738 206.332 18.4239 205.423 18.9324C204.506 19.4243 203.789 20.1245 203.264 21.0249C202.756 21.9085 202.505 22.9172 202.505 24.0509C202.505 25.1847 202.756 26.2017 203.264 27.1021C203.789 27.9857 204.506 28.686 205.423 29.1861C206.332 29.6947 207.366 29.9531 208.508 29.9531C209.658 29.9531 210.683 29.6947 211.584 29.1861C212.492 28.686 213.209 27.9857 213.718 27.1021C214.235 26.2017 214.501 25.1847 214.501 24.0509C214.501 22.9172 214.235 21.9085 213.718 21.0249C213.209 20.1245 212.492 19.4243 211.584 18.9324C210.683 18.4239 209.658 18.1738 208.508 18.1738ZM228.415 18.1738C227.273 18.1738 226.239 18.4239 225.322 18.9324C224.413 19.4243 223.688 20.1245 223.171 21.0249C222.663 21.9085 222.404 22.9172 222.404 24.0509C222.404 25.1847 222.663 26.2017 223.171 27.1021C223.688 27.9857 224.413 28.686 225.322 29.1861C226.239 29.6947 227.273 29.9531 228.415 29.9531C229.565 29.9531 230.582 29.6947 231.483 29.1861C232.4 28.686 233.108 27.9857 233.617 27.1021C234.142 26.2017 234.4 25.1847 234.4 24.0509C234.4 22.9172 234.142 21.9085 233.617 21.0249C233.108 20.1245 232.4 19.4243 231.483 18.9324C230.582 18.4239 229.565 18.1738 228.415 18.1738ZM242.086 18.1738C240.978 18.1738 239.977 18.4072 239.077 18.8657C238.193 19.3326 237.501 19.9911 236.993 20.8498C236.484 21.6918 236.226 22.6588 236.226 23.7508C236.226 24.8346 236.484 25.8099 236.993 26.6686C237.501 27.5105 238.193 28.1691 239.077 28.6443C239.977 29.1111 240.978 29.3445 242.086 29.3445C242.928 29.3445 243.704 29.1945 244.412 28.9027C245.138 28.6026 245.754 28.1524 246.246 27.5606V28.4692C246.246 29.778 245.921 30.7534 245.263 31.387C244.629 32.0289 243.629 32.3456 242.278 32.3456C241.436 32.3456 240.619 32.2123 239.819 31.9372C239.035 31.6704 238.377 31.3119 237.835 30.8451L236.835 32.454C237.443 33.0042 238.243 33.4294 239.235 33.7211C240.219 34.0212 241.261 34.1796 242.345 34.1796C244.337 34.1796 245.829 33.6878 246.83 32.7208C247.83 31.7621 248.339 30.2699 248.339 28.2525V18.2822H246.355V20.0662C245.871 19.4409 245.254 18.9741 244.504 18.649C243.762 18.3322 242.953 18.1738 242.086 18.1738ZM263.111 18.1738C262.01 18.1738 261.018 18.4239 260.135 18.9324C259.259 19.4243 258.567 20.1245 258.059 21.0249C257.567 21.9252 257.325 22.9339 257.325 24.0509C257.325 25.1847 257.575 26.2017 258.084 27.1021C258.609 28.0024 259.343 28.7026 260.285 29.2112C261.227 29.703 262.31 29.9531 263.528 29.9531C264.486 29.9531 265.353 29.7947 266.12 29.4696C266.904 29.1528 267.554 28.686 268.079 28.0774L266.929 26.7269C266.087 27.6606 264.97 28.1274 263.594 28.1274C262.461 28.1274 261.51 27.819 260.743 27.2104C259.985 26.5852 259.543 25.7683 259.409 24.7512H268.779C268.804 24.4845 268.821 24.276 268.821 24.1176C268.821 22.9589 268.571 21.9252 268.079 21.0249C267.596 20.1245 266.929 19.4243 266.053 18.9324C265.195 18.4239 264.219 18.1738 263.111 18.1738ZM275.424 18.1738C273.956 18.1738 272.789 18.4906 271.922 19.1325C271.047 19.7577 270.613 20.5914 270.613 21.6334C270.613 22.4504 270.822 23.0756 271.247 23.5258C271.664 23.9759 272.164 24.3011 272.748 24.4845C273.339 24.6762 274.106 24.8429 275.032 24.9846C275.715 25.1013 276.24 25.2097 276.599 25.3181C276.974 25.4015 277.291 25.5432 277.533 25.7516C277.783 25.9516 277.908 26.2267 277.908 26.5769C277.908 27.6189 276.991 28.1441 275.165 28.1441C274.423 28.1441 273.69 28.0357 272.964 27.819C272.239 27.6023 271.622 27.3105 271.114 26.952L270.238 28.6026C270.738 28.9944 271.422 29.3195 272.289 29.5863C273.156 29.8281 274.065 29.9531 275.015 29.9531C276.549 29.9531 277.758 29.6446 278.65 29.0361C279.55 28.4109 280 27.5772 280 26.5352C280 25.7516 279.792 25.143 279.392 24.7012C278.983 24.2677 278.491 23.9676 277.908 23.7925C277.341 23.6008 276.591 23.4257 275.665 23.2673C274.965 23.1339 274.423 23.0256 274.031 22.9172C273.656 22.8172 273.331 22.6588 273.073 22.442C272.814 22.2253 272.681 21.9252 272.681 21.55C272.681 21.0665 272.914 20.6831 273.381 20.3913C273.84 20.0995 274.515 19.9578 275.407 19.9578C276.682 19.9578 277.791 20.2579 278.733 20.8748L279.625 19.2159C279.133 18.8991 278.5 18.6407 277.733 18.4573C276.966 18.2655 276.19 18.1738 275.424 18.1738ZM124.677 18.2822V29.8197H126.77V18.2822H124.677ZM252.307 18.2822V29.8197H254.399V18.2822H252.307ZM152.962 19.9328C153.963 19.9328 154.796 20.2496 155.463 20.8748C156.147 21.4833 156.547 22.2753 156.664 23.2423H149.261C149.378 22.2586 149.77 21.4583 150.437 20.8498C151.12 20.2412 151.962 19.9328 152.962 19.9328ZM263.111 19.9328C264.119 19.9328 264.953 20.2496 265.62 20.8748C266.304 21.4833 266.704 22.2753 266.82 23.2423H259.409C259.526 22.2586 259.918 21.4583 260.585 20.8498C261.268 20.2412 262.11 19.9328 263.111 19.9328ZM78.6688 19.9995C79.8276 19.9995 80.7779 20.3496 81.5199 21.0499C82.2618 21.7251 82.6286 22.6254 82.6286 23.7508C82.6286 24.4761 82.4619 25.1264 82.1117 25.7099C81.7783 26.2684 81.3031 26.7186 80.6946 27.0354C80.1027 27.3522 79.4274 27.5106 78.6688 27.5106C77.9019 27.5106 77.21 27.3522 76.6014 27.0354C76.0012 26.7186 75.5344 26.2684 75.1842 25.7099C74.8508 25.1264 74.684 24.4761 74.684 23.7508C74.684 22.6254 75.0509 21.7251 75.7928 21.0499C76.5347 20.3496 77.4934 19.9995 78.6688 19.9995ZM208.508 19.9995C209.25 19.9995 209.908 20.1662 210.492 20.4997C211.092 20.8331 211.55 21.3166 211.884 21.9418C212.217 22.5504 212.384 23.2507 212.384 24.0509C212.384 24.8512 212.217 25.5598 211.884 26.1851C211.55 26.7936 211.092 27.2771 210.492 27.6189C209.908 27.9524 209.25 28.1274 208.508 28.1274C207.774 28.1274 207.107 27.9524 206.507 27.6189C205.932 27.2771 205.465 26.7936 205.115 26.1851C204.781 25.5598 204.615 24.8512 204.615 24.0509C204.615 23.2507 204.781 22.5504 205.115 21.9418C205.465 21.3166 205.932 20.8331 206.507 20.4997C207.107 20.1662 207.774 19.9995 208.508 19.9995ZM228.415 19.9995C229.157 19.9995 229.815 20.1662 230.399 20.4997C230.991 20.8331 231.458 21.3166 231.791 21.9418C232.125 22.5504 232.291 23.2507 232.291 24.0509C232.291 24.8512 232.125 25.5598 231.791 26.1851C231.458 26.7936 230.991 27.2771 230.399 27.6189C229.815 27.9524 229.157 28.1274 228.415 28.1274C227.673 28.1274 227.006 27.9524 226.414 27.6189C225.831 27.2771 225.364 26.7936 225.014 26.1851C224.68 25.5598 224.522 24.8512 224.522 24.0509C224.522 23.2507 224.68 22.5504 225.014 21.9418C225.364 21.3166 225.831 20.8331 226.414 20.4997C227.006 20.1662 227.673 19.9995 228.415 19.9995ZM242.32 19.9995C243.487 19.9995 244.437 20.3496 245.179 21.0499C245.913 21.7251 246.288 22.6254 246.288 23.7508C246.288 24.4761 246.113 25.1264 245.763 25.7099C245.429 26.2684 244.962 26.7186 244.346 27.0354C243.754 27.3522 243.078 27.5106 242.32 27.5106C241.553 27.5106 240.869 27.3522 240.252 27.0354C239.661 26.7186 239.185 26.2684 238.844 25.7099C238.51 25.1264 238.343 24.4761 238.343 23.7508C238.343 22.6254 238.71 21.7251 239.452 21.0499C240.194 20.3496 241.144 19.9995 242.32 19.9995ZM92.4822 24.6845H95.7083V26.2934C95.4416 26.952 95.0248 27.4522 94.4412 27.819C93.866 28.1691 93.1741 28.3442 92.3738 28.3442C91.5735 28.3442 90.9566 28.1775 90.5065 27.844C90.0563 27.5105 89.8312 27.0521 89.8312 26.4685C89.8312 25.2764 90.7149 24.6845 92.4822 24.6845Z"
     fill="white"
     id="path4"
     style="fill:#ffffff" />
</svg>
